STARTFONT 2.1 
COMMENT =========================================================================
COMMENT Created with Raster Font Editor v0.14, ©2005-2013 CyLog Software
COMMENT =========================================================================
FONT 0027.chr.bmp
SIZE 16 96 96
FONTBOUNDINGBOX 8 16 0 -1
STARTPROPERTIES 15
FONTNAME_REGISTRY ""
FOUNDRY ""
FAMILY_NAME "0027.chr.bmp"
WEIGHT_NAME "Normal"
SLANT "R"
SETWIDTH_NAME "Normal"
ADD_STYLE_NAME "Regular"
PIXEL_SIZE 16
CHARSET_REGISTRY "ISO8859"
CHARSET_ENCODING "1"
FONT_ASCENT 15
FONT_DESCENT 1
DEFAULT_CHAR 0
COPYRIGHT "Converted from BMP"
FACE_NAME "0027.chr.bmp"
ENDPROPERTIES
CHARS 256
STARTCHAR 0
ENCODING 0
SWIDTH 8000 0
DWIDTH 8 0
BBX 8 16 0 -1
BITMAP
00
00
00
00
00
00
00
00
00
00
00
00
00
00
00
00
ENDCHAR
STARTCHAR 32
ENCODING 32
SWIDTH 8000 0
DWIDTH 8 0
BBX 8 16 0 -1
BITMAP
00
00
00
00
00
00
00
00
00
00
00
00
00
00
00
00
ENDCHAR
STARTCHAR 33
ENCODING 33
SWIDTH 8000 0
DWIDTH 8 0
BBX 8 16 0 -1
BITMAP
00
00
10
10
10
10
10
10
10
10
10
10
00
00
10
10
ENDCHAR
STARTCHAR 34
ENCODING 34
SWIDTH 8000 0
DWIDTH 8 0
BBX 8 16 0 -1
BITMAP
00
00
28
28
28
28
28
28
00
00
00
00
00
00
00
00
ENDCHAR
STARTCHAR 35
ENCODING 35
SWIDTH 8000 0
DWIDTH 8 0
BBX 8 16 0 -1
BITMAP
00
00
28
28
28
28
7C
7C
28
28
7C
7C
28
28
28
28
ENDCHAR
STARTCHAR 36
ENCODING 36
SWIDTH 8000 0
DWIDTH 8 0
BBX 8 16 0 -1
BITMAP
00
00
38
38
54
54
50
50
38
38
14
14
54
54
38
38
ENDCHAR
STARTCHAR 37
ENCODING 37
SWIDTH 8000 0
DWIDTH 8 0
BBX 8 16 0 -1
BITMAP
00
00
60
60
64
64
08
08
10
10
20
20
4C
4C
0C
0C
ENDCHAR
STARTCHAR 38
ENCODING 38
SWIDTH 8000 0
DWIDTH 8 0
BBX 8 16 0 -1
BITMAP
00
00
20
20
50
50
50
50
20
20
54
54
48
48
34
34
ENDCHAR
STARTCHAR 39
ENCODING 39
SWIDTH 8000 0
DWIDTH 8 0
BBX 8 16 0 -1
BITMAP
00
00
08
08
08
08
10
10
00
00
00
00
00
00
00
00
ENDCHAR
STARTCHAR 40
ENCODING 40
SWIDTH 8000 0
DWIDTH 8 0
BBX 8 16 0 -1
BITMAP
00
00
08
08
10
10
20
20
20
20
20
20
10
10
08
08
ENDCHAR
STARTCHAR 41
ENCODING 41
SWIDTH 8000 0
DWIDTH 8 0
BBX 8 16 0 -1
BITMAP
00
00
20
20
10
10
08
08
08
08
08
08
10
10
20
20
ENDCHAR
STARTCHAR 42
ENCODING 42
SWIDTH 8000 0
DWIDTH 8 0
BBX 8 16 0 -1
BITMAP
00
00
00
00
28
28
10
10
7C
7C
10
10
28
28
00
00
ENDCHAR
STARTCHAR 43
ENCODING 43
SWIDTH 8000 0
DWIDTH 8 0
BBX 8 16 0 -1
BITMAP
00
00
00
00
10
10
10
10
7C
7C
10
10
10
10
00
00
ENDCHAR
STARTCHAR 44
ENCODING 44
SWIDTH 8000 0
DWIDTH 8 0
BBX 8 16 0 -1
BITMAP
00
00
00
00
00
00
00
00
00
00
30
30
10
10
20
20
ENDCHAR
STARTCHAR 45
ENCODING 45
SWIDTH 8000 0
DWIDTH 8 0
BBX 8 16 0 -1
BITMAP
00
00
00
00
00
00
00
00
7C
7C
00
00
00
00
00
00
ENDCHAR
STARTCHAR 46
ENCODING 46
SWIDTH 8000 0
DWIDTH 8 0
BBX 8 16 0 -1
BITMAP
00
00
00
00
00
00
00
00
00
00
00
00
30
30
30
30
ENDCHAR
STARTCHAR 47
ENCODING 47
SWIDTH 8000 0
DWIDTH 8 0
BBX 8 16 0 -1
BITMAP
00
00
00
00
04
04
08
08
10
10
20
20
40
40
00
00
ENDCHAR
STARTCHAR 48
ENCODING 48
SWIDTH 8000 0
DWIDTH 8 0
BBX 8 16 0 -1
BITMAP
00
00
38
38
44
44
44
44
44
44
44
44
44
44
38
38
ENDCHAR
STARTCHAR 49
ENCODING 49
SWIDTH 8000 0
DWIDTH 8 0
BBX 8 16 0 -1
BITMAP
00
00
10
10
30
30
10
10
10
10
10
10
10
10
38
38
ENDCHAR
STARTCHAR 50
ENCODING 50
SWIDTH 8000 0
DWIDTH 8 0
BBX 8 16 0 -1
BITMAP
00
00
38
38
44
44
04
04
08
08
10
10
20
20
7C
7C
ENDCHAR
STARTCHAR 51
ENCODING 51
SWIDTH 8000 0
DWIDTH 8 0
BBX 8 16 0 -1
BITMAP
00
00
38
38
44
44
04
04
18
18
04
04
44
44
38
38
ENDCHAR
STARTCHAR 52
ENCODING 52
SWIDTH 8000 0
DWIDTH 8 0
BBX 8 16 0 -1
BITMAP
00
00
08
08
18
18
28
28
48
48
7C
7C
08
08
08
08
ENDCHAR
STARTCHAR 53
ENCODING 53
SWIDTH 8000 0
DWIDTH 8 0
BBX 8 16 0 -1
BITMAP
00
00
7C
7C
40
40
78
78
04
04
04
04
44
44
38
38
ENDCHAR
STARTCHAR 54
ENCODING 54
SWIDTH 8000 0
DWIDTH 8 0
BBX 8 16 0 -1
BITMAP
00
00
18
18
20
20
40
40
78
78
44
44
44
44
38
38
ENDCHAR
STARTCHAR 55
ENCODING 55
SWIDTH 8000 0
DWIDTH 8 0
BBX 8 16 0 -1
BITMAP
00
00
7C
7C
04
04
08
08
10
10
20
20
20
20
20
20
ENDCHAR
STARTCHAR 56
ENCODING 56
SWIDTH 8000 0
DWIDTH 8 0
BBX 8 16 0 -1
BITMAP
00
00
38
38
44
44
44
44
38
38
44
44
44
44
38
38
ENDCHAR
STARTCHAR 57
ENCODING 57
SWIDTH 8000 0
DWIDTH 8 0
BBX 8 16 0 -1
BITMAP
00
00
38
38
44
44
44
44
3C
3C
04
04
08
08
30
30
ENDCHAR
STARTCHAR 58
ENCODING 58
SWIDTH 8000 0
DWIDTH 8 0
BBX 8 16 0 -1
BITMAP
00
00
00
00
30
30
30
30
00
00
30
30
30
30
00
00
ENDCHAR
STARTCHAR 59
ENCODING 59
SWIDTH 8000 0
DWIDTH 8 0
BBX 8 16 0 -1
BITMAP
00
00
00
00
30
30
30
30
00
00
30
30
10
10
20
20
ENDCHAR
STARTCHAR 60
ENCODING 60
SWIDTH 8000 0
DWIDTH 8 0
BBX 8 16 0 -1
BITMAP
00
00
08
08
10
10
20
20
40
40
20
20
10
10
08
08
ENDCHAR
STARTCHAR 61
ENCODING 61
SWIDTH 8000 0
DWIDTH 8 0
BBX 8 16 0 -1
BITMAP
00
00
00
00
00
00
7C
7C
00
00
7C
7C
00
00
00
00
ENDCHAR
STARTCHAR 62
ENCODING 62
SWIDTH 8000 0
DWIDTH 8 0
BBX 8 16 0 -1
BITMAP
00
00
20
20
10
10
08
08
04
04
08
08
10
10
20
20
ENDCHAR
STARTCHAR 63
ENCODING 63
SWIDTH 8000 0
DWIDTH 8 0
BBX 8 16 0 -1
BITMAP
00
00
38
38
44
44
04
04
08
08
10
10
00
00
10
10
ENDCHAR
STARTCHAR 64
ENCODING 64
SWIDTH 8000 0
DWIDTH 8 0
BBX 8 16 0 -1
BITMAP
00
00
38
38
44
44
5C
5C
54
54
5C
5C
40
40
38
38
ENDCHAR
STARTCHAR 65
ENCODING 65
SWIDTH 8000 0
DWIDTH 8 0
BBX 8 16 0 -1
BITMAP
00
00
38
38
44
44
44
44
7C
7C
44
44
44
44
44
44
ENDCHAR
STARTCHAR 66
ENCODING 66
SWIDTH 8000 0
DWIDTH 8 0
BBX 8 16 0 -1
BITMAP
00
00
78
78
24
24
24
24
38
38
24
24
24
24
78
78
ENDCHAR
STARTCHAR 67
ENCODING 67
SWIDTH 8000 0
DWIDTH 8 0
BBX 8 16 0 -1
BITMAP
00
00
38
38
44
44
40
40
40
40
40
40
44
44
38
38
ENDCHAR
STARTCHAR 68
ENCODING 68
SWIDTH 8000 0
DWIDTH 8 0
BBX 8 16 0 -1
BITMAP
00
00
78
78
24
24
24
24
24
24
24
24
24
24
78
78
ENDCHAR
STARTCHAR 69
ENCODING 69
SWIDTH 8000 0
DWIDTH 8 0
BBX 8 16 0 -1
BITMAP
00
00
7C
7C
40
40
40
40
78
78
40
40
40
40
7C
7C
ENDCHAR
STARTCHAR 70
ENCODING 70
SWIDTH 8000 0
DWIDTH 8 0
BBX 8 16 0 -1
BITMAP
00
00
7C
7C
40
40
40
40
78
78
40
40
40
40
40
40
ENDCHAR
STARTCHAR 71
ENCODING 71
SWIDTH 8000 0
DWIDTH 8 0
BBX 8 16 0 -1
BITMAP
00
00
3C
3C
40
40
40
40
5C
5C
44
44
44
44
38
38
ENDCHAR
STARTCHAR 72
ENCODING 72
SWIDTH 8000 0
DWIDTH 8 0
BBX 8 16 0 -1
BITMAP
00
00
44
44
44
44
44
44
7C
7C
44
44
44
44
44
44
ENDCHAR
STARTCHAR 73
ENCODING 73
SWIDTH 8000 0
DWIDTH 8 0
BBX 8 16 0 -1
BITMAP
00
00
38
38
10
10
10
10
10
10
10
10
10
10
38
38
ENDCHAR
STARTCHAR 74
ENCODING 74
SWIDTH 8000 0
DWIDTH 8 0
BBX 8 16 0 -1
BITMAP
00
00
04
04
04
04
04
04
04
04
04
04
44
44
38
38
ENDCHAR
STARTCHAR 75
ENCODING 75
SWIDTH 8000 0
DWIDTH 8 0
BBX 8 16 0 -1
BITMAP
00
00
44
44
48
48
50
50
60
60
50
50
48
48
44
44
ENDCHAR
STARTCHAR 76
ENCODING 76
SWIDTH 8000 0
DWIDTH 8 0
BBX 8 16 0 -1
BITMAP
00
00
40
40
40
40
40
40
40
40
40
40
40
40
7C
7C
ENDCHAR
STARTCHAR 77
ENCODING 77
SWIDTH 8000 0
DWIDTH 8 0
BBX 8 16 0 -1
BITMAP
00
00
44
44
6C
6C
54
54
54
54
44
44
44
44
44
44
ENDCHAR
STARTCHAR 78
ENCODING 78
SWIDTH 8000 0
DWIDTH 8 0
BBX 8 16 0 -1
BITMAP
00
00
44
44
64
64
64
64
54
54
4C
4C
4C
4C
44
44
ENDCHAR
STARTCHAR 79
ENCODING 79
SWIDTH 8000 0
DWIDTH 8 0
BBX 8 16 0 -1
BITMAP
00
00
7C
7C
44
44
44
44
44
44
44
44
44
44
7C
7C
ENDCHAR
STARTCHAR 80
ENCODING 80
SWIDTH 8000 0
DWIDTH 8 0
BBX 8 16 0 -1
BITMAP
00
00
78
78
44
44
44
44
78
78
40
40
40
40
40
40
ENDCHAR
STARTCHAR 81
ENCODING 81
SWIDTH 8000 0
DWIDTH 8 0
BBX 8 16 0 -1
BITMAP
00
00
38
38
44
44
44
44
44
44
54
54
48
48
34
34
ENDCHAR
STARTCHAR 82
ENCODING 82
SWIDTH 8000 0
DWIDTH 8 0
BBX 8 16 0 -1
BITMAP
00
00
78
78
44
44
44
44
78
78
50
50
48
48
44
44
ENDCHAR
STARTCHAR 83
ENCODING 83
SWIDTH 8000 0
DWIDTH 8 0
BBX 8 16 0 -1
BITMAP
00
00
38
38
44
44
40
40
38
38
04
04
44
44
38
38
ENDCHAR
STARTCHAR 84
ENCODING 84
SWIDTH 8000 0
DWIDTH 8 0
BBX 8 16 0 -1
BITMAP
00
00
7C
7C
10
10
10
10
10
10
10
10
10
10
10
10
ENDCHAR
STARTCHAR 85
ENCODING 85
SWIDTH 8000 0
DWIDTH 8 0
BBX 8 16 0 -1
BITMAP
00
00
44
44
44
44
44
44
44
44
44
44
44
44
38
38
ENDCHAR
STARTCHAR 86
ENCODING 86
SWIDTH 8000 0
DWIDTH 8 0
BBX 8 16 0 -1
BITMAP
00
00
44
44
44
44
44
44
28
28
28
28
10
10
10
10
ENDCHAR
STARTCHAR 87
ENCODING 87
SWIDTH 8000 0
DWIDTH 8 0
BBX 8 16 0 -1
BITMAP
00
00
44
44
44
44
44
44
54
54
54
54
54
54
28
28
ENDCHAR
STARTCHAR 88
ENCODING 88
SWIDTH 8000 0
DWIDTH 8 0
BBX 8 16 0 -1
BITMAP
00
00
44
44
44
44
28
28
10
10
28
28
44
44
44
44
ENDCHAR
STARTCHAR 89
ENCODING 89
SWIDTH 8000 0
DWIDTH 8 0
BBX 8 16 0 -1
BITMAP
00
00
44
44
44
44
28
28
10
10
10
10
10
10
10
10
ENDCHAR
STARTCHAR 90
ENCODING 90
SWIDTH 8000 0
DWIDTH 8 0
BBX 8 16 0 -1
BITMAP
00
00
7C
7C
04
04
08
08
10
10
20
20
40
40
7C
7C
ENDCHAR
STARTCHAR 91
ENCODING 91
SWIDTH 8000 0
DWIDTH 8 0
BBX 8 16 0 -1
BITMAP
00
00
38
38
20
20
20
20
20
20
20
20
20
20
38
38
ENDCHAR
STARTCHAR 92
ENCODING 92
SWIDTH 8000 0
DWIDTH 8 0
BBX 8 16 0 -1
BITMAP
00
00
00
00
40
40
20
20
10
10
08
08
04
04
00
00
ENDCHAR
STARTCHAR 93
ENCODING 93
SWIDTH 8000 0
DWIDTH 8 0
BBX 8 16 0 -1
BITMAP
00
00
38
38
08
08
08
08
08
08
08
08
08
08
38
38
ENDCHAR
STARTCHAR 94
ENCODING 94
SWIDTH 8000 0
DWIDTH 8 0
BBX 8 16 0 -1
BITMAP
00
00
00
00
10
10
28
28
44
44
00
00
00
00
00
00
ENDCHAR
STARTCHAR 95
ENCODING 95
SWIDTH 8000 0
DWIDTH 8 0
BBX 8 16 0 -1
BITMAP
00
00
00
00
00
00
00
00
00
00
00
00
00
00
7C
7C
ENDCHAR
STARTCHAR 96
ENCODING 96
SWIDTH 8000 0
DWIDTH 8 0
BBX 8 16 0 -1
BITMAP
00
00
00
00
20
20
10
10
08
08
00
00
00
00
00
00
ENDCHAR
STARTCHAR 97
ENCODING 97
SWIDTH 8000 0
DWIDTH 8 0
BBX 8 16 0 -1
BITMAP
00
00
00
00
00
00
38
38
44
44
7C
7C
44
44
44
44
ENDCHAR
STARTCHAR 98
ENCODING 98
SWIDTH 8000 0
DWIDTH 8 0
BBX 8 16 0 -1
BITMAP
00
00
00
00
00
00
78
78
24
24
38
38
24
24
78
78
ENDCHAR
STARTCHAR 99
ENCODING 99
SWIDTH 8000 0
DWIDTH 8 0
BBX 8 16 0 -1
BITMAP
00
00
00
00
00
00
3C
3C
40
40
40
40
40
40
3C
3C
ENDCHAR
STARTCHAR 100
ENCODING 100
SWIDTH 8000 0
DWIDTH 8 0
BBX 8 16 0 -1
BITMAP
00
00
00
00
00
00
78
78
24
24
24
24
24
24
78
78
ENDCHAR
STARTCHAR 101
ENCODING 101
SWIDTH 8000 0
DWIDTH 8 0
BBX 8 16 0 -1
BITMAP
00
00
00
00
00
00
7C
7C
40
40
78
78
40
40
7C
7C
ENDCHAR
STARTCHAR 102
ENCODING 102
SWIDTH 8000 0
DWIDTH 8 0
BBX 8 16 0 -1
BITMAP
00
00
00
00
00
00
7C
7C
40
40
78
78
40
40
40
40
ENDCHAR
STARTCHAR 103
ENCODING 103
SWIDTH 8000 0
DWIDTH 8 0
BBX 8 16 0 -1
BITMAP
00
00
00
00
00
00
3C
3C
40
40
5C
5C
44
44
38
38
ENDCHAR
STARTCHAR 104
ENCODING 104
SWIDTH 8000 0
DWIDTH 8 0
BBX 8 16 0 -1
BITMAP
00
00
00
00
00
00
44
44
44
44
7C
7C
44
44
44
44
ENDCHAR
STARTCHAR 105
ENCODING 105
SWIDTH 8000 0
DWIDTH 8 0
BBX 8 16 0 -1
BITMAP
00
00
00
00
00
00
38
38
10
10
10
10
10
10
38
38
ENDCHAR
STARTCHAR 106
ENCODING 106
SWIDTH 8000 0
DWIDTH 8 0
BBX 8 16 0 -1
BITMAP
00
00
00
00
00
00
08
08
08
08
08
08
48
48
30
30
ENDCHAR
STARTCHAR 107
ENCODING 107
SWIDTH 8000 0
DWIDTH 8 0
BBX 8 16 0 -1
BITMAP
00
00
00
00
00
00
24
24
28
28
30
30
28
28
24
24
ENDCHAR
STARTCHAR 108
ENCODING 108
SWIDTH 8000 0
DWIDTH 8 0
BBX 8 16 0 -1
BITMAP
00
00
00
00
00
00
40
40
40
40
40
40
40
40
7C
7C
ENDCHAR
STARTCHAR 109
ENCODING 109
SWIDTH 8000 0
DWIDTH 8 0
BBX 8 16 0 -1
BITMAP
00
00
00
00
00
00
44
44
6C
6C
54
54
44
44
44
44
ENDCHAR
STARTCHAR 110
ENCODING 110
SWIDTH 8000 0
DWIDTH 8 0
BBX 8 16 0 -1
BITMAP
00
00
00
00
00
00
44
44
64
64
54
54
4C
4C
44
44
ENDCHAR
STARTCHAR 111
ENCODING 111
SWIDTH 8000 0
DWIDTH 8 0
BBX 8 16 0 -1
BITMAP
00
00
00
00
00
00
7C
7C
44
44
44
44
44
44
7C
7C
ENDCHAR
STARTCHAR 112
ENCODING 112
SWIDTH 8000 0
DWIDTH 8 0
BBX 8 16 0 -1
BITMAP
00
00
00
00
00
00
78
78
44
44
78
78
40
40
40
40
ENDCHAR
STARTCHAR 113
ENCODING 113
SWIDTH 8000 0
DWIDTH 8 0
BBX 8 16 0 -1
BITMAP
00
00
00
00
00
00
38
38
44
44
54
54
48
48
34
34
ENDCHAR
STARTCHAR 114
ENCODING 114
SWIDTH 8000 0
DWIDTH 8 0
BBX 8 16 0 -1
BITMAP
00
00
00
00
00
00
78
78
44
44
78
78
48
48
44
44
ENDCHAR
STARTCHAR 115
ENCODING 115
SWIDTH 8000 0
DWIDTH 8 0
BBX 8 16 0 -1
BITMAP
00
00
00
00
00
00
3C
3C
40
40
38
38
04
04
78
78
ENDCHAR
STARTCHAR 116
ENCODING 116
SWIDTH 8000 0
DWIDTH 8 0
BBX 8 16 0 -1
BITMAP
00
00
00
00
00
00
7C
7C
10
10
10
10
10
10
10
10
ENDCHAR
STARTCHAR 117
ENCODING 117
SWIDTH 8000 0
DWIDTH 8 0
BBX 8 16 0 -1
BITMAP
00
00
00
00
00
00
44
44
44
44
44
44
44
44
38
38
ENDCHAR
STARTCHAR 118
ENCODING 118
SWIDTH 8000 0
DWIDTH 8 0
BBX 8 16 0 -1
BITMAP
00
00
00
00
00
00
44
44
44
44
28
28
28
28
10
10
ENDCHAR
STARTCHAR 119
ENCODING 119
SWIDTH 8000 0
DWIDTH 8 0
BBX 8 16 0 -1
BITMAP
00
00
00
00
00
00
44
44
44
44
54
54
54
54
28
28
ENDCHAR
STARTCHAR 120
ENCODING 120
SWIDTH 8000 0
DWIDTH 8 0
BBX 8 16 0 -1
BITMAP
00
00
00
00
00
00
44
44
28
28
10
10
28
28
44
44
ENDCHAR
STARTCHAR 121
ENCODING 121
SWIDTH 8000 0
DWIDTH 8 0
BBX 8 16 0 -1
BITMAP
00
00
00
00
00
00
44
44
28
28
10
10
10
10
10
10
ENDCHAR
STARTCHAR 122
ENCODING 122
SWIDTH 8000 0
DWIDTH 8 0
BBX 8 16 0 -1
BITMAP
00
00
00
00
00
00
7C
7C
08
08
10
10
20
20
7C
7C
ENDCHAR
STARTCHAR 123
ENCODING 123
SWIDTH 8000 0
DWIDTH 8 0
BBX 8 16 0 -1
BITMAP
00
00
18
18
20
20
20
20
40
40
20
20
20
20
18
18
ENDCHAR
STARTCHAR 124
ENCODING 124
SWIDTH 8000 0
DWIDTH 8 0
BBX 8 16 0 -1
BITMAP
00
00
10
10
10
10
10
10
00
00
10
10
10
10
10
10
ENDCHAR
STARTCHAR 125
ENCODING 125
SWIDTH 8000 0
DWIDTH 8 0
BBX 8 16 0 -1
BITMAP
00
00
30
30
08
08
08
08
04
04
08
08
08
08
30
30
ENDCHAR
STARTCHAR 126
ENCODING 126
SWIDTH 8000 0
DWIDTH 8 0
BBX 8 16 0 -1
BITMAP
00
00
00
00
20
20
54
54
08
08
00
00
00
00
00
00
ENDCHAR
STARTCHAR 127
ENCODING 127
SWIDTH 8000 0
DWIDTH 8 0
BBX 8 16 0 -1
BITMAP
00
00
00
00
00
00
00
00
00
00
00
00
00
00
00
00
ENDCHAR
STARTCHAR 128
ENCODING 128
SWIDTH 8000 0
DWIDTH 8 0
BBX 8 16 0 -1
BITMAP
00
00
00
00
00
00
00
00
00
00
00
00
00
00
00
00
ENDCHAR
STARTCHAR 129
ENCODING 129
SWIDTH 8000 0
DWIDTH 8 0
BBX 8 16 0 -1
BITMAP
01
01
03
03
03
03
03
03
03
03
03
03
03
03
03
03
ENDCHAR
STARTCHAR 130
ENCODING 130
SWIDTH 8000 0
DWIDTH 8 0
BBX 8 16 0 -1
BITMAP
FC
FC
04
04
05
05
05
05
04
04
06
06
02
02
0C
0C
ENDCHAR
STARTCHAR 131
ENCODING 131
SWIDTH 8000 0
DWIDTH 8 0
BBX 8 16 0 -1
BITMAP
00
00
80
80
40
40
40
40
80
80
00
00
0C
0C
12
12
ENDCHAR
STARTCHAR 132
ENCODING 132
SWIDTH 8000 0
DWIDTH 8 0
BBX 8 16 0 -1
BITMAP
FF
FF
80
80
C0
C0
40
40
60
60
38
38
1C
1C
0E
0E
ENDCHAR
STARTCHAR 133
ENCODING 133
SWIDTH 8000 0
DWIDTH 8 0
BBX 8 16 0 -1
BITMAP
19
19
21
21
21
21
3D
3D
05
05
05
05
05
05
C4
C4
ENDCHAR
STARTCHAR 134
ENCODING 134
SWIDTH 8000 0
DWIDTH 8 0
BBX 8 16 0 -1
BITMAP
BA
BA
8A
8A
8A
8A
BA
BA
A1
A1
A1
A1
A1
A1
22
22
ENDCHAR
STARTCHAR 135
ENCODING 135
SWIDTH 8000 0
DWIDTH 8 0
BBX 8 16 0 -1
BITMAP
03
03
01
01
00
00
00
00
00
00
00
00
00
00
00
00
ENDCHAR
STARTCHAR 136
ENCODING 136
SWIDTH 8000 0
DWIDTH 8 0
BBX 8 16 0 -1
BITMAP
E2
E2
31
31
10
10
18
18
0C
0C
07
07
03
03
00
00
ENDCHAR
STARTCHAR 137
ENCODING 137
SWIDTH 8000 0
DWIDTH 8 0
BBX 8 16 0 -1
BITMAP
4C
4C
90
90
20
20
40
40
40
40
20
20
E0
E0
00
00
ENDCHAR
STARTCHAR 138
ENCODING 138
SWIDTH 8000 0
DWIDTH 8 0
BBX 8 16 0 -1
BITMAP
3C
3C
42
42
99
99
A1
A1
A1
A1
99
99
42
42
3C
3C
ENDCHAR
STARTCHAR 139
ENCODING 139
SWIDTH 8000 0
DWIDTH 8 0
BBX 8 16 0 -1
BITMAP
00
00
00
00
00
00
00
00
00
00
00
00
00
00
00
00
ENDCHAR
STARTCHAR 140
ENCODING 140
SWIDTH 8000 0
DWIDTH 8 0
BBX 8 16 0 -1
BITMAP
00
00
00
00
00
00
00
00
00
00
00
00
00
00
00
00
ENDCHAR
STARTCHAR 141
ENCODING 141
SWIDTH 8000 0
DWIDTH 8 0
BBX 8 16 0 -1
BITMAP
00
00
00
00
00
00
00
00
00
00
00
00
00
00
00
00
ENDCHAR
STARTCHAR 142
ENCODING 142
SWIDTH 8000 0
DWIDTH 8 0
BBX 8 16 0 -1
BITMAP
00
00
00
00
00
00
00
00
00
00
00
00
00
00
00
00
ENDCHAR
STARTCHAR 143
ENCODING 143
SWIDTH 8000 0
DWIDTH 8 0
BBX 8 16 0 -1
BITMAP
00
00
00
00
00
00
00
00
00
00
00
00
00
00
00
00
ENDCHAR
STARTCHAR 144
ENCODING 144
SWIDTH 8000 0
DWIDTH 8 0
BBX 8 16 0 -1
BITMAP
00
00
00
00
00
00
00
00
00
00
00
00
00
00
00
00
ENDCHAR
STARTCHAR 145
ENCODING 145
SWIDTH 8000 0
DWIDTH 8 0
BBX 8 16 0 -1
BITMAP
00
00
00
00
00
00
00
00
00
00
00
00
00
00
00
00
ENDCHAR
STARTCHAR 146
ENCODING 146
SWIDTH 8000 0
DWIDTH 8 0
BBX 8 16 0 -1
BITMAP
00
00
00
00
00
00
00
00
00
00
00
00
00
00
00
00
ENDCHAR
STARTCHAR 147
ENCODING 147
SWIDTH 8000 0
DWIDTH 8 0
BBX 8 16 0 -1
BITMAP
00
00
00
00
00
00
00
00
00
00
00
00
00
00
00
00
ENDCHAR
STARTCHAR 148
ENCODING 148
SWIDTH 8000 0
DWIDTH 8 0
BBX 8 16 0 -1
BITMAP
00
00
00
00
00
00
00
00
00
00
00
00
00
00
00
00
ENDCHAR
STARTCHAR 149
ENCODING 149
SWIDTH 8000 0
DWIDTH 8 0
BBX 8 16 0 -1
BITMAP
00
00
00
00
00
00
00
00
00
00
00
00
00
00
00
00
ENDCHAR
STARTCHAR 150
ENCODING 150
SWIDTH 8000 0
DWIDTH 8 0
BBX 8 16 0 -1
BITMAP
00
00
00
00
00
00
00
00
00
00
00
00
00
00
00
00
ENDCHAR
STARTCHAR 151
ENCODING 151
SWIDTH 8000 0
DWIDTH 8 0
BBX 8 16 0 -1
BITMAP
00
00
00
00
00
00
00
00
00
00
00
00
00
00
00
00
ENDCHAR
STARTCHAR 152
ENCODING 152
SWIDTH 8000 0
DWIDTH 8 0
BBX 8 16 0 -1
BITMAP
00
00
00
00
00
00
00
00
00
00
00
00
00
00
00
00
ENDCHAR
STARTCHAR 153
ENCODING 153
SWIDTH 8000 0
DWIDTH 8 0
BBX 8 16 0 -1
BITMAP
00
00
00
00
00
00
00
00
00
00
00
00
00
00
00
00
ENDCHAR
STARTCHAR 154
ENCODING 154
SWIDTH 8000 0
DWIDTH 8 0
BBX 8 16 0 -1
BITMAP
00
00
00
00
00
00
00
00
00
00
00
00
00
00
00
00
ENDCHAR
STARTCHAR 155
ENCODING 155
SWIDTH 8000 0
DWIDTH 8 0
BBX 8 16 0 -1
BITMAP
00
00
00
00
00
00
00
00
00
00
00
00
00
00
00
00
ENDCHAR
STARTCHAR 156
ENCODING 156
SWIDTH 8000 0
DWIDTH 8 0
BBX 8 16 0 -1
BITMAP
00
00
00
00
00
00
00
00
00
00
00
00
00
00
00
00
ENDCHAR
STARTCHAR 157
ENCODING 157
SWIDTH 8000 0
DWIDTH 8 0
BBX 8 16 0 -1
BITMAP
00
00
00
00
00
00
00
00
00
00
00
00
00
00
00
00
ENDCHAR
STARTCHAR 158
ENCODING 158
SWIDTH 8000 0
DWIDTH 8 0
BBX 8 16 0 -1
BITMAP
00
00
00
00
00
00
00
00
00
00
00
00
00
00
00
00
ENDCHAR
STARTCHAR 159
ENCODING 159
SWIDTH 8000 0
DWIDTH 8 0
BBX 8 16 0 -1
BITMAP
00
00
00
00
00
00
00
00
00
00
00
00
00
00
00
00
ENDCHAR
STARTCHAR 160
ENCODING 160
SWIDTH 8000 0
DWIDTH 8 0
BBX 8 16 0 -1
BITMAP
00
00
00
00
00
00
00
00
00
00
00
00
00
00
00
00
ENDCHAR
STARTCHAR 161
ENCODING 161
SWIDTH 8000 0
DWIDTH 8 0
BBX 8 16 0 -1
BITMAP
20
20
20
20
20
20
20
20
20
20
20
20
00
00
20
20
ENDCHAR
STARTCHAR 162
ENCODING 162
SWIDTH 8000 0
DWIDTH 8 0
BBX 8 16 0 -1
BITMAP
48
48
48
48
48
48
00
00
00
00
00
00
00
00
00
00
ENDCHAR
STARTCHAR 163
ENCODING 163
SWIDTH 8000 0
DWIDTH 8 0
BBX 8 16 0 -1
BITMAP
00
00
48
48
FC
FC
48
48
48
48
FC
FC
48
48
00
00
ENDCHAR
STARTCHAR 164
ENCODING 164
SWIDTH 8000 0
DWIDTH 8 0
BBX 8 16 0 -1
BITMAP
10
10
3C
3C
50
50
38
38
14
14
78
78
10
10
00
00
ENDCHAR
STARTCHAR 165
ENCODING 165
SWIDTH 8000 0
DWIDTH 8 0
BBX 8 16 0 -1
BITMAP
C0
C0
C4
C4
08
08
10
10
20
20
40
40
8C
8C
0C
0C
ENDCHAR
STARTCHAR 166
ENCODING 166
SWIDTH 8000 0
DWIDTH 8 0
BBX 8 16 0 -1
BITMAP
60
60
90
90
90
90
60
60
60
60
94
94
88
88
74
74
ENDCHAR
STARTCHAR 167
ENCODING 167
SWIDTH 8000 0
DWIDTH 8 0
BBX 8 16 0 -1
BITMAP
08
08
10
10
20
20
00
00
00
00
00
00
00
00
00
00
ENDCHAR
STARTCHAR 168
ENCODING 168
SWIDTH 8000 0
DWIDTH 8 0
BBX 8 16 0 -1
BITMAP
08
08
10
10
20
20
20
20
20
20
20
20
10
10
08
08
ENDCHAR
STARTCHAR 169
ENCODING 169
SWIDTH 8000 0
DWIDTH 8 0
BBX 8 16 0 -1
BITMAP
40
40
20
20
10
10
10
10
10
10
10
10
20
20
40
40
ENDCHAR
STARTCHAR 170
ENCODING 170
SWIDTH 8000 0
DWIDTH 8 0
BBX 8 16 0 -1
BITMAP
00
00
00
00
48
48
30
30
CC
CC
30
30
48
48
00
00
ENDCHAR
STARTCHAR 171
ENCODING 171
SWIDTH 8000 0
DWIDTH 8 0
BBX 8 16 0 -1
BITMAP
00
00
00
00
10
10
10
10
7C
7C
10
10
10
10
00
00
ENDCHAR
STARTCHAR 172
ENCODING 172
SWIDTH 8000 0
DWIDTH 8 0
BBX 8 16 0 -1
BITMAP
00
00
00
00
00
00
00
00
00
00
30
30
10
10
20
20
ENDCHAR
STARTCHAR 173
ENCODING 173
SWIDTH 8000 0
DWIDTH 8 0
BBX 8 16 0 -1
BITMAP
00
00
00
00
00
00
00
00
7C
7C
00
00
00
00
00
00
ENDCHAR
STARTCHAR 174
ENCODING 174
SWIDTH 8000 0
DWIDTH 8 0
BBX 8 16 0 -1
BITMAP
00
00
00
00
00
00
00
00
00
00
00
00
30
30
30
30
ENDCHAR
STARTCHAR 175
ENCODING 175
SWIDTH 8000 0
DWIDTH 8 0
BBX 8 16 0 -1
BITMAP
00
00
04
04
08
08
10
10
20
20
40
40
80
80
00
00
ENDCHAR
STARTCHAR 176
ENCODING 176
SWIDTH 8000 0
DWIDTH 8 0
BBX 8 16 0 -1
BITMAP
38
38
44
44
44
44
44
44
44
44
44
44
44
44
38
38
ENDCHAR
STARTCHAR 177
ENCODING 177
SWIDTH 8000 0
DWIDTH 8 0
BBX 8 16 0 -1
BITMAP
10
10
30
30
50
50
10
10
10
10
10
10
10
10
7C
7C
ENDCHAR
STARTCHAR 178
ENCODING 178
SWIDTH 8000 0
DWIDTH 8 0
BBX 8 16 0 -1
BITMAP
78
78
84
84
04
04
08
08
10
10
20
20
40
40
FC
FC
ENDCHAR
STARTCHAR 179
ENCODING 179
SWIDTH 8000 0
DWIDTH 8 0
BBX 8 16 0 -1
BITMAP
78
78
84
84
04
04
38
38
04
04
04
04
84
84
78
78
ENDCHAR
STARTCHAR 180
ENCODING 180
SWIDTH 8000 0
DWIDTH 8 0
BBX 8 16 0 -1
BITMAP
0C
0C
14
14
24
24
44
44
84
84
FC
FC
04
04
04
04
ENDCHAR
STARTCHAR 181
ENCODING 181
SWIDTH 8000 0
DWIDTH 8 0
BBX 8 16 0 -1
BITMAP
F8
F8
80
80
80
80
F8
F8
04
04
04
04
84
84
78
78
ENDCHAR
STARTCHAR 182
ENCODING 182
SWIDTH 8000 0
DWIDTH 8 0
BBX 8 16 0 -1
BITMAP
78
78
80
80
80
80
F8
F8
84
84
84
84
84
84
78
78
ENDCHAR
STARTCHAR 183
ENCODING 183
SWIDTH 8000 0
DWIDTH 8 0
BBX 8 16 0 -1
BITMAP
FC
FC
04
04
04
04
08
08
10
10
20
20
40
40
40
40
ENDCHAR
STARTCHAR 184
ENCODING 184
SWIDTH 8000 0
DWIDTH 8 0
BBX 8 16 0 -1
BITMAP
78
78
84
84
84
84
78
78
84
84
84
84
84
84
78
78
ENDCHAR
STARTCHAR 185
ENCODING 185
SWIDTH 8000 0
DWIDTH 8 0
BBX 8 16 0 -1
BITMAP
78
78
84
84
84
84
84
84
7C
7C
04
04
04
04
78
78
ENDCHAR
STARTCHAR 186
ENCODING 186
SWIDTH 8000 0
DWIDTH 8 0
BBX 8 16 0 -1
BITMAP
00
00
30
30
30
30
00
00
00
00
30
30
30
30
00
00
ENDCHAR
STARTCHAR 187
ENCODING 187
SWIDTH 8000 0
DWIDTH 8 0
BBX 8 16 0 -1
BITMAP
00
00
30
30
30
30
00
00
00
00
30
30
10
10
20
20
ENDCHAR
STARTCHAR 188
ENCODING 188
SWIDTH 8000 0
DWIDTH 8 0
BBX 8 16 0 -1
BITMAP
00
00
08
08
10
10
20
20
40
40
20
20
10
10
08
08
ENDCHAR
STARTCHAR 189
ENCODING 189
SWIDTH 8000 0
DWIDTH 8 0
BBX 8 16 0 -1
BITMAP
00
00
00
00
00
00
7C
7C
00
00
7C
7C
00
00
00
00
ENDCHAR
STARTCHAR 190
ENCODING 190
SWIDTH 8000 0
DWIDTH 8 0
BBX 8 16 0 -1
BITMAP
00
00
40
40
20
20
10
10
08
08
10
10
20
20
40
40
ENDCHAR
STARTCHAR 191
ENCODING 191
SWIDTH 8000 0
DWIDTH 8 0
BBX 8 16 0 -1
BITMAP
38
38
44
44
04
04
08
08
10
10
10
10
00
00
10
10
ENDCHAR
STARTCHAR 192
ENCODING 192
SWIDTH 8000 0
DWIDTH 8 0
BBX 8 16 0 -1
BITMAP
00
00
78
78
84
84
9C
9C
A4
A4
98
98
80
80
7C
7C
ENDCHAR
STARTCHAR 193
ENCODING 193
SWIDTH 8000 0
DWIDTH 8 0
BBX 8 16 0 -1
BITMAP
78
78
84
84
84
84
84
84
FC
FC
84
84
84
84
84
84
ENDCHAR
STARTCHAR 194
ENCODING 194
SWIDTH 8000 0
DWIDTH 8 0
BBX 8 16 0 -1
BITMAP
F8
F8
44
44
44
44
78
78
44
44
44
44
44
44
F8
F8
ENDCHAR
STARTCHAR 195
ENCODING 195
SWIDTH 8000 0
DWIDTH 8 0
BBX 8 16 0 -1
BITMAP
78
78
84
84
80
80
80
80
80
80
80
80
84
84
78
78
ENDCHAR
STARTCHAR 196
ENCODING 196
SWIDTH 8000 0
DWIDTH 8 0
BBX 8 16 0 -1
BITMAP
F8
F8
44
44
44
44
44
44
44
44
44
44
44
44
F8
F8
ENDCHAR
STARTCHAR 197
ENCODING 197
SWIDTH 8000 0
DWIDTH 8 0
BBX 8 16 0 -1
BITMAP
FC
FC
80
80
80
80
F0
F0
80
80
80
80
80
80
FC
FC
ENDCHAR
STARTCHAR 198
ENCODING 198
SWIDTH 8000 0
DWIDTH 8 0
BBX 8 16 0 -1
BITMAP
FC
FC
80
80
80
80
F0
F0
80
80
80
80
80
80
80
80
ENDCHAR
STARTCHAR 199
ENCODING 199
SWIDTH 8000 0
DWIDTH 8 0
BBX 8 16 0 -1
BITMAP
78
78
84
84
80
80
80
80
9C
9C
84
84
84
84
78
78
ENDCHAR
STARTCHAR 200
ENCODING 200
SWIDTH 8000 0
DWIDTH 8 0
BBX 8 16 0 -1
BITMAP
84
84
84
84
84
84
FC
FC
84
84
84
84
84
84
84
84
ENDCHAR
STARTCHAR 201
ENCODING 201
SWIDTH 8000 0
DWIDTH 8 0
BBX 8 16 0 -1
BITMAP
7C
7C
10
10
10
10
10
10
10
10
10
10
10
10
7C
7C
ENDCHAR
STARTCHAR 202
ENCODING 202
SWIDTH 8000 0
DWIDTH 8 0
BBX 8 16 0 -1
BITMAP
04
04
04
04
04
04
04
04
04
04
84
84
84
84
78
78
ENDCHAR
STARTCHAR 203
ENCODING 203
SWIDTH 8000 0
DWIDTH 8 0
BBX 8 16 0 -1
BITMAP
88
88
90
90
A0
A0
C0
C0
A0
A0
90
90
88
88
84
84
ENDCHAR
STARTCHAR 204
ENCODING 204
SWIDTH 8000 0
DWIDTH 8 0
BBX 8 16 0 -1
BITMAP
40
40
40
40
40
40
40
40
40
40
40
40
40
40
7C
7C
ENDCHAR
STARTCHAR 205
ENCODING 205
SWIDTH 8000 0
DWIDTH 8 0
BBX 8 16 0 -1
BITMAP
84
84
CC
CC
B4
B4
84
84
84
84
84
84
84
84
84
84
ENDCHAR
STARTCHAR 206
ENCODING 206
SWIDTH 8000 0
DWIDTH 8 0
BBX 8 16 0 -1
BITMAP
84
84
C4
C4
A4
A4
94
94
8C
8C
84
84
84
84
84
84
ENDCHAR
STARTCHAR 207
ENCODING 207
SWIDTH 8000 0
DWIDTH 8 0
BBX 8 16 0 -1
BITMAP
FC
FC
84
84
84
84
84
84
84
84
84
84
84
84
FC
FC
ENDCHAR
STARTCHAR 208
ENCODING 208
SWIDTH 8000 0
DWIDTH 8 0
BBX 8 16 0 -1
BITMAP
F8
F8
84
84
84
84
84
84
F8
F8
80
80
80
80
80
80
ENDCHAR
STARTCHAR 209
ENCODING 209
SWIDTH 8000 0
DWIDTH 8 0
BBX 8 16 0 -1
BITMAP
78
78
84
84
84
84
84
84
84
84
94
94
88
88
74
74
ENDCHAR
STARTCHAR 210
ENCODING 210
SWIDTH 8000 0
DWIDTH 8 0
BBX 8 16 0 -1
BITMAP
F8
F8
84
84
84
84
84
84
F8
F8
90
90
88
88
84
84
ENDCHAR
STARTCHAR 211
ENCODING 211
SWIDTH 8000 0
DWIDTH 8 0
BBX 8 16 0 -1
BITMAP
78
78
84
84
80
80
78
78
04
04
04
04
84
84
78
78
ENDCHAR
STARTCHAR 212
ENCODING 212
SWIDTH 8000 0
DWIDTH 8 0
BBX 8 16 0 -1
BITMAP
7C
7C
10
10
10
10
10
10
10
10
10
10
10
10
10
10
ENDCHAR
STARTCHAR 213
ENCODING 213
SWIDTH 8000 0
DWIDTH 8 0
BBX 8 16 0 -1
BITMAP
84
84
84
84
84
84
84
84
84
84
84
84
84
84
78
78
ENDCHAR
STARTCHAR 214
ENCODING 214
SWIDTH 8000 0
DWIDTH 8 0
BBX 8 16 0 -1
BITMAP
44
44
44
44
44
44
44
44
28
28
28
28
10
10
10
10
ENDCHAR
STARTCHAR 215
ENCODING 215
SWIDTH 8000 0
DWIDTH 8 0
BBX 8 16 0 -1
BITMAP
84
84
84
84
84
84
84
84
84
84
B4
B4
CC
CC
84
84
ENDCHAR
STARTCHAR 216
ENCODING 216
SWIDTH 8000 0
DWIDTH 8 0
BBX 8 16 0 -1
BITMAP
84
84
84
84
48
48
30
30
30
30
48
48
84
84
84
84
ENDCHAR
STARTCHAR 217
ENCODING 217
SWIDTH 8000 0
DWIDTH 8 0
BBX 8 16 0 -1
BITMAP
44
44
44
44
44
44
28
28
10
10
10
10
10
10
10
10
ENDCHAR
STARTCHAR 218
ENCODING 218
SWIDTH 8000 0
DWIDTH 8 0
BBX 8 16 0 -1
BITMAP
FC
FC
04
04
08
08
10
10
20
20
40
40
80
80
FC
FC
ENDCHAR
STARTCHAR 219
ENCODING 219
SWIDTH 8000 0
DWIDTH 8 0
BBX 8 16 0 -1
BITMAP
38
38
20
20
20
20
20
20
20
20
20
20
20
20
38
38
ENDCHAR
STARTCHAR 220
ENCODING 220
SWIDTH 8000 0
DWIDTH 8 0
BBX 8 16 0 -1
BITMAP
00
00
80
80
40
40
20
20
10
10
08
08
04
04
00
00
ENDCHAR
STARTCHAR 221
ENCODING 221
SWIDTH 8000 0
DWIDTH 8 0
BBX 8 16 0 -1
BITMAP
70
70
10
10
10
10
10
10
10
10
10
10
10
10
70
70
ENDCHAR
STARTCHAR 222
ENCODING 222
SWIDTH 8000 0
DWIDTH 8 0
BBX 8 16 0 -1
BITMAP
10
10
28
28
44
44
82
82
00
00
00
00
00
00
00
00
ENDCHAR
STARTCHAR 223
ENCODING 223
SWIDTH 8000 0
DWIDTH 8 0
BBX 8 16 0 -1
BITMAP
00
00
00
00
00
00
00
00
00
00
00
00
00
00
FC
FC
ENDCHAR
STARTCHAR 224
ENCODING 224
SWIDTH 8000 0
DWIDTH 8 0
BBX 8 16 0 -1
BITMAP
00
00
00
00
00
00
00
00
00
00
00
00
00
00
00
00
ENDCHAR
STARTCHAR 225
ENCODING 225
SWIDTH 8000 0
DWIDTH 8 0
BBX 8 16 0 -1
BITMAP
00
00
00
00
00
00
00
00
00
00
00
00
00
00
00
00
ENDCHAR
STARTCHAR 226
ENCODING 226
SWIDTH 8000 0
DWIDTH 8 0
BBX 8 16 0 -1
BITMAP
00
00
00
00
00
00
00
00
00
00
00
00
00
00
00
00
ENDCHAR
STARTCHAR 227
ENCODING 227
SWIDTH 8000 0
DWIDTH 8 0
BBX 8 16 0 -1
BITMAP
00
00
00
00
00
00
00
00
00
00
00
00
00
00
00
00
ENDCHAR
STARTCHAR 228
ENCODING 228
SWIDTH 8000 0
DWIDTH 8 0
BBX 8 16 0 -1
BITMAP
00
00
00
00
00
00
00
00
00
00
00
00
00
00
00
00
ENDCHAR
STARTCHAR 229
ENCODING 229
SWIDTH 8000 0
DWIDTH 8 0
BBX 8 16 0 -1
BITMAP
00
00
00
00
00
00
00
00
00
00
00
00
00
00
00
00
ENDCHAR
STARTCHAR 230
ENCODING 230
SWIDTH 8000 0
DWIDTH 8 0
BBX 8 16 0 -1
BITMAP
00
00
00
00
00
00
00
00
00
00
00
00
00
00
00
00
ENDCHAR
STARTCHAR 231
ENCODING 231
SWIDTH 8000 0
DWIDTH 8 0
BBX 8 16 0 -1
BITMAP
00
00
00
00
00
00
00
00
00
00
00
00
00
00
00
00
ENDCHAR
STARTCHAR 232
ENCODING 232
SWIDTH 8000 0
DWIDTH 8 0
BBX 8 16 0 -1
BITMAP
00
00
00
00
00
00
00
00
00
00
00
00
00
00
00
00
ENDCHAR
STARTCHAR 233
ENCODING 233
SWIDTH 8000 0
DWIDTH 8 0
BBX 8 16 0 -1
BITMAP
00
00
00
00
00
00
00
00
00
00
00
00
00
00
00
00
ENDCHAR
STARTCHAR 234
ENCODING 234
SWIDTH 8000 0
DWIDTH 8 0
BBX 8 16 0 -1
BITMAP
00
00
00
00
00
00
00
00
00
00
00
00
00
00
00
00
ENDCHAR
STARTCHAR 235
ENCODING 235
SWIDTH 8000 0
DWIDTH 8 0
BBX 8 16 0 -1
BITMAP
00
00
00
00
00
00
00
00
00
00
00
00
00
00
00
00
ENDCHAR
STARTCHAR 236
ENCODING 236
SWIDTH 8000 0
DWIDTH 8 0
BBX 8 16 0 -1
BITMAP
00
00
00
00
00
00
00
00
00
00
00
00
00
00
00
00
ENDCHAR
STARTCHAR 237
ENCODING 237
SWIDTH 8000 0
DWIDTH 8 0
BBX 8 16 0 -1
BITMAP
00
00
00
00
00
00
00
00
00
00
00
00
00
00
00
00
ENDCHAR
STARTCHAR 238
ENCODING 238
SWIDTH 8000 0
DWIDTH 8 0
BBX 8 16 0 -1
BITMAP
00
00
00
00
00
00
00
00
00
00
00
00
00
00
00
00
ENDCHAR
STARTCHAR 239
ENCODING 239
SWIDTH 8000 0
DWIDTH 8 0
BBX 8 16 0 -1
BITMAP
00
00
00
00
00
00
00
00
00
00
00
00
00
00
00
00
ENDCHAR
STARTCHAR 240
ENCODING 240
SWIDTH 8000 0
DWIDTH 8 0
BBX 8 16 0 -1
BITMAP
00
00
00
00
00
00
00
00
00
00
00
00
00
00
00
00
ENDCHAR
STARTCHAR 241
ENCODING 241
SWIDTH 8000 0
DWIDTH 8 0
BBX 8 16 0 -1
BITMAP
00
00
00
00
00
00
00
00
00
00
00
00
00
00
00
00
ENDCHAR
STARTCHAR 242
ENCODING 242
SWIDTH 8000 0
DWIDTH 8 0
BBX 8 16 0 -1
BITMAP
00
00
00
00
00
00
00
00
00
00
00
00
00
00
00
00
ENDCHAR
STARTCHAR 243
ENCODING 243
SWIDTH 8000 0
DWIDTH 8 0
BBX 8 16 0 -1
BITMAP
00
00
00
00
00
00
00
00
00
00
00
00
00
00
00
00
ENDCHAR
STARTCHAR 244
ENCODING 244
SWIDTH 8000 0
DWIDTH 8 0
BBX 8 16 0 -1
BITMAP
00
00
00
00
00
00
00
00
00
00
00
00
00
00
00
00
ENDCHAR
STARTCHAR 245
ENCODING 245
SWIDTH 8000 0
DWIDTH 8 0
BBX 8 16 0 -1
BITMAP
00
00
00
00
00
00
00
00
00
00
00
00
00
00
00
00
ENDCHAR
STARTCHAR 246
ENCODING 246
SWIDTH 8000 0
DWIDTH 8 0
BBX 8 16 0 -1
BITMAP
00
00
00
00
00
00
00
00
00
00
00
00
00
00
00
00
ENDCHAR
STARTCHAR 247
ENCODING 247
SWIDTH 8000 0
DWIDTH 8 0
BBX 8 16 0 -1
BITMAP
00
00
00
00
00
00
00
00
00
00
00
00
00
00
00
00
ENDCHAR
STARTCHAR 248
ENCODING 248
SWIDTH 8000 0
DWIDTH 8 0
BBX 8 16 0 -1
BITMAP
00
00
00
00
00
00
00
00
00
00
00
00
00
00
00
00
ENDCHAR
STARTCHAR 249
ENCODING 249
SWIDTH 8000 0
DWIDTH 8 0
BBX 8 16 0 -1
BITMAP
00
00
00
00
00
00
00
00
00
00
00
00
00
00
00
00
ENDCHAR
STARTCHAR 250
ENCODING 250
SWIDTH 8000 0
DWIDTH 8 0
BBX 8 16 0 -1
BITMAP
00
00
00
00
00
00
00
00
00
00
00
00
00
00
00
00
ENDCHAR
STARTCHAR 251
ENCODING 251
SWIDTH 8000 0
DWIDTH 8 0
BBX 8 16 0 -1
BITMAP
00
00
00
00
00
00
00
00
00
00
00
00
00
00
00
00
ENDCHAR
STARTCHAR 252
ENCODING 252
SWIDTH 8000 0
DWIDTH 8 0
BBX 8 16 0 -1
BITMAP
00
00
00
00
00
00
00
00
00
00
00
00
00
00
00
00
ENDCHAR
STARTCHAR 253
ENCODING 253
SWIDTH 8000 0
DWIDTH 8 0
BBX 8 16 0 -1
BITMAP
00
00
00
00
00
00
00
00
00
00
00
00
00
00
00
00
ENDCHAR
STARTCHAR 254
ENCODING 254
SWIDTH 8000 0
DWIDTH 8 0
BBX 8 16 0 -1
BITMAP
00
00
00
00
00
00
00
00
00
00
00
00
00
00
00
00
ENDCHAR
STARTCHAR 255
ENCODING 255
SWIDTH 8000 0
DWIDTH 8 0
BBX 8 16 0 -1
BITMAP
00
00
00
00
00
00
00
00
00
00
00
00
00
00
00
00
ENDCHAR
ENDFONT
